<svg xmlns="http://www.w3.org/2000/svg" width="12" height="20" viewBox="0 0 12 20">
  <path fill="#5A5A5A" d="M10.4756098,36 C10.7601626,36 11.0162602,35.9369582 11.2439024,35.8108747 C11.4715447,35.6847912 11.6544715,35.5094563 11.7926829,35.28487 C11.9308943,35.0602837 12,34.8179669 12,34.5579196 C12,34.1560284 11.8414634,33.8014184 11.5243902,33.4940898 L3.57317073,26 L11.5243902,18.5059102 C11.8414634,18.2064618 12,17.8518519 12,17.4420804 C12,17.1741529 11.9308943,16.929866 11.7926829,16.7092199 C11.6544715,16.4885737 11.4715447,16.3152088 11.2439024,16.1891253 C11.0162602,16.0630418 10.7601626,16 10.4756098,16 C10.0609756,16 9.71138211,16.1379039 9.42682927,16.4137116 L0.524390244,24.8534279 C0.337398374,25.0189125 0.203252033,25.1962175 0.12195122,25.3853428 C0.0406504065,25.5744681 0,25.7793538 0,26 C0,26.2206462 0.0406504065,26.4235619 0.12195122,26.608747 C0.203252033,26.7939322 0.337398374,26.9732072 0.524390244,27.1465721 L9.42682927,35.5981087 C9.71138211,35.8660362 10.0609756,36 10.4756098,36 Z" transform="translate(0 -16)"/>
</svg>
