<svg xmlns="http://www.w3.org/2000/svg" width="12" height="12" viewBox="0 0 12 12">
  <path d="M4.81083793,12 C5.40090316,12 5.85850477,11.7746781 6.1716006,11.2854077 L11.6869042,2.5944206 C11.9036628,2.25321888 12,1.89914163 12,1.58369099 C12,0.682403433 11.3256397,0 10.4586051,0 C9.87456096,0 9.48921224,0.225321888 9.13396889,0.824034335 L4.78675364,8.03433476 L2.6613146,5.49141631 C2.36026091,5.12446352 1.99899649,4.95064378 1.51731059,4.95064378 C0.644254892,4.95064378 0,5.63304721 0,6.54077253 C0,6.95922747 0.102358254,7.28111588 0.433517311,7.68025751 L3.52232815,11.4077253 C3.86552935,11.8197425 4.28700452,12 4.81083793,12 Z"/>
</svg>
